<svg id="Group_3" data-name="Group 3" xmlns="http://www.w3.org/2000/svg" width="141.577" height="32.01" viewBox="0 0 141.577 32.01">
  <g id="Group_1" data-name="Group 1" transform="translate(68.099)">
    <circle id="Ellipse_1" data-name="Ellipse 1" cx="2.674" cy="2.674" r="2.674" fill="#ff3d17"/>
    <circle id="Ellipse_2" data-name="Ellipse 2" cx="2.674" cy="2.674" r="2.674" transform="translate(9.019)" fill="#ff3d17"/>
    <circle id="Ellipse_3" data-name="Ellipse 3" cx="2.674" cy="2.674" r="2.674" transform="translate(47.558)" fill="#ff3d17"/>
  </g>
  <g id="Group_2" data-name="Group 2" transform="translate(0 2.451)">
    <path id="Path_1" data-name="Path 1" d="M347.333,290.313c0,2.225-1.238,3.552-3.311,3.552-2.864,0-3.173-2.532-3.173-3.621V280.174h-4.414v10.794c0,4.061,2.694,6.9,6.552,6.9a5.883,5.883,0,0,0,4.57-1.9v1.418h4.19V280.174h-4.414Z" transform="translate(-317.44 -274.973)" fill="#1961e4"/>
    <path id="Path_2" data-name="Path 2" d="M389.665,280.174l-3.207,11.14-3.8-11.14h-4.434l-3.8,11.146-3.275-11.146H366.43l5.583,17.208h4.4l3.924-11.637,4.023,11.637h4.3l5.512-17.208Z" transform="translate(-329.052 -274.973)" fill="#1961e4"/>
    <rect id="Rectangle_1" data-name="Rectangle 1" width="4.379" height="17.208" transform="translate(77.603 5.201)" fill="#1961e4"/>
    <rect id="Rectangle_2" data-name="Rectangle 2" width="4.379" height="17.208" transform="translate(116.141 5.201)" fill="#1961e4"/>
    <path id="Path_3" data-name="Path 3" d="M518.869,284.219l7.117-7.33H520.1l-6.154,6.483V271.688h-4.379V294.1h4.379v-4.814l1.841-1.932,4.848,6.746h5.408Z" transform="translate(-384.464 -271.688)" fill="#1961e4"/>
    <path id="Path_4" data-name="Path 4" d="M414.477,299.992h-4.545v4.54h8.924V280.174h-4.379Z" transform="translate(-345.893 -274.973)" fill="#1961e4"/>
    <rect id="Rectangle_3" data-name="Rectangle 3" width="4.551" height="17.858" transform="translate(0 0)" fill="#1961e4"/>
    <rect id="Rectangle_4" data-name="Rectangle 4" width="11.208" height="4.551" transform="translate(4.552 17.858)" fill="#1961e4"/>
    <rect id="Rectangle_5" data-name="Rectangle 5" transform="translate(4.551 17.858)" fill="#1961e4"/>
    <path id="Path_5" data-name="Path 5" d="M452.62,286.681l-2.556-.519c-.954-.191-1.524-.772-1.524-1.556a1.99,1.99,0,0,1,2.208-1.725,2.662,2.662,0,0,1,2.648,1.505l4.072.009,0-.021-.03-.182c-.374-2.243-2.35-4.863-6.688-4.863-3.518,0-6.38,2.521-6.38,5.621,0,2.545,1.75,4.451,4.68,5.1l2.486.553c.822.169,1.8.593,1.8,1.66,0,.859-.715,1.725-2.312,1.725a3.036,3.036,0,0,1-2.84-1.483h-4.232a5.739,5.739,0,0,0,1.754,3.189,7.645,7.645,0,0,0,5.353,1.879c4.3,0,6.552-2.81,6.552-5.586C457.611,289.3,455.792,287.37,452.62,286.681Z" transform="translate(-359.063 -274.646)" fill="#1961e4"/>
    <path id="Path_6" data-name="Path 6" d="M476.937,272.052h-4.379v4.978h-2.876v4.379h2.876v12.829h8.823v-4.551h-4.444v-8.278h4.449V277.03h-4.449Z" transform="translate(-369.025 -271.829)" fill="#1961e4"/>
  </g>
</svg>
