<svg width="196" height="197" viewBox="0 0 196 197" fill="none" xmlns="http://www.w3.org/2000/svg">
<g clip-path="url(#clip0_898_22530)">
<path d="M170.572 143.446C156.714 164.17 133.659 177.592 109.418 182.479C92.1253 185.958 73.483 185.244 57.6691 177.314C41.8572 169.385 29.4229 153.431 28.4746 135.589C28.1332 128.848 29.5443 121.694 33.9996 116.659C41.09 108.626 53.1973 108.346 63.8338 108.676C74.4704 109.005 86.5674 108.752 93.6927 100.75C99.1683 94.5998 99.9726 85.6808 102.861 77.9322C107.75 64.7656 119.586 54.4746 133.174 51.5599C135.062 51.1588 136.977 50.8955 138.903 50.7741C153.875 49.8115 168.066 57.6259 175.93 70.5601L176.862 72.0945C187.937 94.4661 184.429 122.721 170.572 143.446Z" fill="#E5E9F1"/>
<path d="M43.0628 105.187L45.7224 106.452C45.8643 106.52 45.924 106.688 45.8561 106.83C45.7882 106.972 45.6216 107.032 45.4797 106.966L45.4694 106.96L42.82 105.721L42.8118 105.717C42.6658 105.649 42.602 105.475 42.6699 105.327C42.7398 105.18 42.9147 105.117 43.0628 105.187Z" fill="#2E4885"/>
<path d="M49.2026 108.414C50.0048 108.931 50.7824 109.49 51.5167 110.103C51.8849 110.41 52.2408 110.731 52.5843 111.066C52.9278 111.401 53.2528 111.755 53.5675 112.119C53.658 112.226 53.6457 112.386 53.5408 112.477C53.4359 112.567 53.2754 112.555 53.1849 112.45L53.1808 112.446C52.8764 112.096 52.5596 111.757 52.2264 111.434C51.8931 111.111 51.5435 110.803 51.1835 110.506C50.4635 109.914 49.7004 109.373 48.9126 108.871C48.7851 108.791 48.748 108.622 48.8283 108.497C48.9064 108.369 49.0751 108.332 49.2026 108.414Z" fill="#2E4885"/>
<path d="M55.6554 115.564C56.0133 116.459 56.2683 117.399 56.3753 118.361C56.4308 118.843 56.4514 119.326 56.4308 119.812C56.4123 120.295 56.3568 120.78 56.2539 121.253V121.256C56.2272 121.377 56.11 121.453 55.9886 121.426C55.8693 121.399 55.7932 121.282 55.8179 121.163C55.9125 120.712 55.9598 120.256 55.9763 119.795C55.9927 119.334 55.9701 118.874 55.9145 118.417C55.8055 117.502 55.5566 116.603 55.209 115.747V115.745C55.1596 115.621 55.2172 115.482 55.3406 115.43C55.4641 115.381 55.6039 115.438 55.6554 115.564Z" fill="#2E4885"/>
<path d="M54.5445 124.905C54.238 125.281 53.9007 125.635 53.5243 125.946C53.152 126.258 52.7385 126.528 52.3024 126.746C52.0844 126.857 51.8581 126.947 51.6277 127.032C51.3953 127.11 51.1629 127.18 50.9222 127.229C50.4429 127.33 49.9493 127.363 49.4597 127.332C49.3527 127.326 49.2725 127.233 49.2808 127.126C49.2869 127.021 49.3795 126.941 49.4844 126.947C49.939 126.974 50.3956 126.941 50.8399 126.844C51.0621 126.797 51.2801 126.729 51.4961 126.655C51.71 126.575 51.9198 126.489 52.1235 126.384C52.5287 126.178 52.9134 125.923 53.261 125.627C53.6127 125.333 53.9295 124.999 54.2154 124.639L54.2175 124.637C54.2895 124.547 54.4232 124.532 54.5137 124.604C54.6042 124.68 54.6186 124.812 54.5445 124.905Z" fill="#2E4885"/>
<path d="M45.8271 125.631C45.4919 125.275 45.208 124.868 44.992 124.427C44.774 123.987 44.63 123.512 44.558 123.029C44.4881 122.543 44.4881 122.048 44.5765 121.564C44.6608 121.081 44.8357 120.612 45.0866 120.188C45.1319 120.112 45.2306 120.085 45.3088 120.13C45.3849 120.176 45.4116 120.274 45.3664 120.351V120.353C45.1381 120.743 44.9797 121.173 44.9056 121.622C44.8254 122.068 44.8295 122.529 44.8953 122.977C44.9653 123.426 45.1031 123.866 45.3067 124.271C45.5104 124.678 45.7757 125.053 46.0884 125.382C46.1563 125.454 46.1542 125.567 46.0822 125.637C46.0102 125.705 45.895 125.703 45.8271 125.631Z" fill="#2E4885"/>
<path d="M48.3572 117.903C48.5896 117.839 48.8262 117.788 49.0627 117.747C49.3013 117.708 49.5379 117.679 49.7744 117.654C50.2496 117.607 50.7268 117.584 51.204 117.59C52.1584 117.599 53.1108 117.71 54.0426 117.909C54.1146 117.924 54.1578 117.994 54.1434 118.066C54.129 118.135 54.0591 118.181 53.9871 118.166C53.0717 117.975 52.1358 117.872 51.2019 117.87C50.735 117.868 50.2681 117.893 49.8032 117.942C49.5708 117.967 49.3383 117.996 49.1121 118.035C48.8837 118.076 48.6595 118.127 48.4353 118.189C48.3551 118.212 48.2728 118.164 48.2502 118.086C48.2317 118.008 48.2769 117.926 48.3572 117.903Z" fill="#2E4885"/>
<path d="M57.8047 119.232C59.5141 120.067 61.0877 121.157 62.5131 122.41C62.5543 122.447 62.5584 122.511 62.5214 122.552C62.4843 122.593 62.4206 122.597 62.3794 122.562C60.9601 121.33 59.3927 120.26 57.6998 119.446C57.6402 119.417 57.6155 119.347 57.6443 119.287C57.6731 119.228 57.7451 119.203 57.8047 119.232Z" fill="#2E4885"/>
<path d="M65.2799 125.267C65.9032 126.024 66.4853 126.818 67.0139 127.647C67.0365 127.684 67.0263 127.733 66.9892 127.756C66.9522 127.779 66.9049 127.768 66.8802 127.731C66.3495 126.913 65.7694 126.129 65.1441 125.38C65.1133 125.343 65.1174 125.288 65.1544 125.257C65.1914 125.224 65.247 125.23 65.2799 125.267Z" fill="#2E4885"/>
<path d="M112.257 83.5804L47.547 83.313C44.9099 83.3027 42.7789 81.1552 42.7892 78.5161L43.0834 15.0342C43.0936 12.3971 45.2411 10.2661 47.8802 10.2764L112.59 10.5438C115.227 10.5541 117.358 12.7016 117.348 15.3406L117.054 78.8226C117.041 81.4617 114.894 83.5906 112.257 83.5804Z" fill="white"/>
<path d="M112.257 83.5807C112.257 83.5807 112.306 83.5724 112.405 83.5663C112.502 83.5539 112.65 83.5601 112.839 83.5293C113.219 83.4819 113.791 83.3606 114.46 83.0171C115.118 82.6694 115.873 82.0626 116.412 81.102C116.673 80.6228 116.875 80.0571 116.955 79.4338C117.027 78.8126 116.99 78.1277 117 77.4118C117.012 71.6647 117.185 25.6546 117.208 15.3965C117.214 12.8315 117.22 18.0788 117.228 15.2793C117.216 13.9155 116.57 12.527 115.439 11.6631C114.879 11.2291 114.217 10.9123 113.509 10.7683C112.806 10.6264 112.051 10.6881 111.296 10.6696C105.261 10.649 98.8145 10.6264 92.0307 10.6038C78.4609 10.5524 63.5438 10.4948 47.8862 10.4331C45.9712 10.394 44.1569 11.6837 43.5275 13.4568C43.1655 14.331 43.2498 15.2957 43.2313 16.2584C43.2272 17.219 43.2231 10.2397 43.2189 11.1941C43.2025 15.0077 43.186 18.7658 43.1696 22.4581C43.1531 26.1503 43.1367 29.7767 43.1202 33.3291C43.112 35.1043 42.9474 74.5712 42.9392 76.3073C42.9433 77.1712 42.9125 78.0516 42.9454 78.8867C43.003 79.7177 43.2971 80.524 43.7702 81.1967C44.2413 81.8734 44.8913 82.4123 45.6318 82.7497C46.3743 83.1076 47.1807 83.194 48.0076 83.1775C49.6614 83.1857 51.2905 83.194 52.899 83.2001C56.114 83.2166 59.2345 83.231 62.25 83.2454C68.283 83.2762 73.9047 83.3071 79.0368 83.3338C89.2949 83.3976 97.5968 83.447 103.342 83.4819C106.207 83.5066 108.433 83.5251 109.951 83.5375C110.702 83.5478 111.276 83.5539 111.668 83.5601C112.057 83.5683 112.257 83.5807 112.257 83.5807C112.257 83.5807 112.059 83.591 111.671 83.593C111.276 83.5951 110.702 83.5971 109.953 83.6012C108.435 83.6012 106.209 83.6012 103.344 83.6033C97.5988 83.591 89.2949 83.5724 79.0368 83.5519C73.9047 83.5354 68.2851 83.519 62.25 83.5005C59.2324 83.4902 56.112 83.4799 52.899 83.4696C51.2925 83.4634 49.6614 83.4593 48.0076 83.4531C47.1889 83.4717 46.2941 83.3811 45.5166 83.0027C44.7308 82.6468 44.0417 82.075 43.5398 81.3571C43.0379 80.6454 42.7253 79.7876 42.6636 78.9052C42.6286 78.0248 42.6595 77.1774 42.6533 76.3031C42.6595 74.565 42.822 35.1001 42.8281 33.325C42.8425 29.7726 42.8549 26.1462 42.8693 22.4539C42.8837 18.7617 42.8981 15.0036 42.9145 11.19C42.9186 10.2376 42.9227 17.2149 42.9269 16.2543C42.933 15.7709 42.9186 15.2998 42.9433 14.8041C42.9598 14.3084 43.0647 13.8126 43.2395 13.3478C43.5748 12.4077 44.2269 11.585 45.0455 11.009C45.459 10.7251 45.9136 10.4989 46.3949 10.3467C46.8783 10.2027 47.3802 10.1307 47.8862 10.1245C63.5438 10.1944 78.4609 10.2582 92.0286 10.3199C98.8125 10.3528 105.259 10.3837 111.294 10.4145C112.043 10.4351 112.8 10.3713 113.555 10.5215C114.299 10.6758 114.997 11.009 115.585 11.4677C116.774 12.381 117.453 13.8435 117.461 15.2751C117.446 18.0767 117.434 12.8294 117.422 15.3965C117.358 25.6546 117.152 71.6647 117.117 77.4118C117.101 78.1297 117.136 78.8044 117.058 79.4462C116.971 80.0838 116.762 80.6577 116.49 81.1452C115.933 82.1182 115.159 82.727 114.487 83.0705C113.804 83.41 113.226 83.5231 112.841 83.5601C112.456 83.591 112.257 83.5807 112.257 83.5807Z" fill="#2E4885"/>
<path d="M108.26 55.4953C108.258 55.485 108.382 55.5014 108.59 55.4192C108.787 55.3431 109.1 55.1065 109.137 54.6663C109.139 53.7715 109.141 52.4715 109.145 50.8013C109.149 49.96 109.151 49.0261 109.155 48.0059C109.157 47.7508 109.157 47.4896 109.159 47.2222C109.168 46.9486 109.168 46.6977 109.005 46.4858C108.859 46.278 108.606 46.1423 108.343 46.1402C108.055 46.1382 107.763 46.1361 107.464 46.1361C105.076 46.1217 102.361 46.1052 99.3599 46.0867C87.3411 45.9921 70.7517 45.8625 52.4324 45.7185C52.1897 45.7165 51.9531 45.8337 51.8133 46.0291C51.6569 46.2266 51.6631 46.4611 51.6652 46.7614C51.661 47.3312 51.6549 47.8989 51.6508 48.4646C51.6405 49.5959 51.6322 50.7211 51.622 51.8359C51.6178 52.3934 51.6117 52.9508 51.6076 53.5041C51.6158 53.7695 51.5788 54.0863 51.6281 54.294C51.6837 54.5203 51.8523 54.7116 52.0642 54.8021C52.1753 54.8473 52.2781 54.8638 52.4118 54.8638L52.8232 54.8679L53.6419 54.8761C54.187 54.8802 54.73 54.8864 55.269 54.8905C59.5906 54.9317 63.758 54.9708 67.728 55.0078C75.6658 55.088 82.8158 55.162 88.8262 55.2238C94.8223 55.2958 99.6808 55.3533 103.048 55.3945C104.718 55.4212 106.02 55.4418 106.915 55.4562C107.349 55.4665 107.682 55.4747 107.921 55.4788C108.143 55.4829 108.26 55.4953 108.26 55.4953C108.26 55.4953 108.145 55.5035 107.917 55.5076C107.68 55.5097 107.345 55.5117 106.911 55.5138C106.016 55.5117 104.714 55.5097 103.044 55.5076C99.6747 55.4891 94.8182 55.4624 88.8201 55.4295C82.8117 55.3863 75.6617 55.3328 67.7218 55.2752C63.7519 55.2423 59.5824 55.2094 55.2628 55.1744C54.7218 55.1703 54.1808 55.1662 53.6357 55.16L52.8171 55.1538L52.4057 55.1497C52.2658 55.1518 52.0909 55.1291 51.949 55.0654C51.6549 54.9399 51.4224 54.6766 51.3463 54.3639C51.3031 54.2056 51.3134 54.0451 51.3134 53.9155L51.3175 53.5C51.3216 52.9467 51.3258 52.3893 51.3319 51.8318C51.3402 50.717 51.3504 49.5918 51.3587 48.4605C51.3628 47.8948 51.369 47.3271 51.3731 46.7573C51.3772 46.6113 51.3669 46.4837 51.3895 46.3089C51.4142 46.1443 51.48 45.9859 51.5788 45.8543C51.7721 45.5848 52.1033 45.4203 52.4365 45.4244C70.7579 45.6013 87.3452 45.7617 99.3641 45.8769C102.365 45.9119 105.082 45.9427 107.468 45.9695C107.767 45.9736 108.059 45.9757 108.347 45.9798C108.662 45.9839 108.96 46.1464 109.13 46.3932C109.322 46.6359 109.32 46.9671 109.307 47.2181C109.303 47.4834 109.301 47.7446 109.299 47.9997C109.285 49.02 109.274 49.9538 109.262 50.7951C109.235 52.4674 109.213 53.7695 109.198 54.6643C109.147 55.1333 108.812 55.3719 108.604 55.4397C108.38 55.5241 108.26 55.4953 108.26 55.4953Z" fill="#E1E1E1"/>
<path fill-rule="evenodd" clip-rule="evenodd" d="M89.9619 29.3711C89.9619 34.3789 85.9023 38.4386 80.8945 38.4386C75.8867 38.4386 71.8271 34.3789 71.8271 29.3711C71.8271 24.3633 75.8867 20.3037 80.8945 20.3037C85.9023 20.3037 89.9619 24.3633 89.9619 29.3711ZM83.4287 27.2134C83.4287 28.6132 82.294 29.748 80.8941 29.748C79.4943 29.748 78.3595 28.6132 78.3595 27.2134C78.3595 25.8136 79.4943 24.6788 80.8941 24.6788C82.294 24.6788 83.4287 25.8136 83.4287 27.2134ZM76.4208 32.9466C77.2896 31.3708 78.9669 30.3033 80.8936 30.3033C82.8207 30.3033 84.4984 31.3714 85.367 32.9479C84.3175 34.2584 82.7039 35.0977 80.8944 35.0977C79.0843 35.0977 77.4703 34.2579 76.4208 32.9466Z" fill="#53699C"/>
<path d="M80.5721 49.3696L56.6517 49.1602C55.9684 49.1543 55.4096 49.7034 55.4036 50.3867C55.3977 51.07 55.9468 51.6288 56.6301 51.6348L80.5505 51.8441C81.2338 51.8501 81.7926 51.301 81.7986 50.6177C81.8046 49.9343 81.2555 49.3756 80.5721 49.3696Z" fill="#E6E9F0"/>
<path d="M107.695 69.1858C107.695 69.1755 107.814 69.1878 108.028 69.1241C108.234 69.0583 108.561 68.8916 108.742 68.4905C108.838 68.2931 108.849 68.0545 108.842 67.7788C108.842 67.5053 108.842 67.209 108.842 66.8882C108.845 66.2423 108.847 65.4997 108.849 64.6646C108.851 63.8274 108.855 62.8956 108.859 61.8795C108.861 61.6244 108.861 61.3652 108.863 61.0999C108.875 60.8325 108.845 60.5836 108.703 60.3594C108.569 60.1393 108.351 59.9644 108.094 59.8842C107.843 59.804 107.542 59.8451 107.246 59.8328C104.868 59.8184 102.161 59.8019 99.1706 59.7834C87.1929 59.6888 70.6632 59.5592 52.4056 59.4173C51.8975 59.4029 51.4285 59.8143 51.3771 60.3162C51.3586 60.8489 51.3627 61.4393 51.3565 61.9967C51.3463 63.1239 51.338 64.245 51.3277 65.3557C51.3236 65.9111 51.3175 66.4644 51.3133 67.0178C51.3216 67.2934 51.2804 67.5793 51.3442 67.8015C51.4059 68.0339 51.554 68.2416 51.7515 68.3795C51.9572 68.5193 52.1793 68.5708 52.4488 68.5625L53.2654 68.5687C53.8084 68.5728 54.3494 68.579 54.8863 68.5831C59.1915 68.6242 63.3445 68.6633 67.3021 68.7003C75.2132 68.7826 82.3385 68.8546 88.3263 68.9163C94.3038 68.9883 99.1418 69.0459 102.499 69.0871C104.163 69.1138 105.461 69.1344 106.351 69.1488C106.783 69.1591 107.117 69.1652 107.353 69.1714C107.579 69.1755 107.695 69.1858 107.695 69.1858C107.695 69.1858 107.579 69.194 107.353 69.1981C107.117 69.2002 106.783 69.2022 106.351 69.2043C105.459 69.2022 104.163 69.2002 102.497 69.1981C99.1398 69.1796 94.2997 69.1529 88.3222 69.12C82.3344 69.0768 75.2091 69.0253 67.298 68.9678C63.3404 68.9348 59.1874 68.9019 54.8822 68.867C54.3433 68.8628 53.8043 68.8567 53.2613 68.8526L52.4447 68.8464C52.1711 68.8608 51.8338 68.7909 51.5869 68.614C51.3339 68.4391 51.1447 68.1717 51.0645 67.8734C50.9822 67.5587 51.0336 67.2852 51.0213 67.0116C51.0254 66.4603 51.0295 65.9049 51.0357 65.3496C51.0439 64.2367 51.0542 63.1178 51.0624 61.9905C51.0706 61.4187 51.0624 60.8777 51.085 60.2771C51.1508 59.6312 51.7535 59.1026 52.4056 59.1211C70.6632 59.298 87.1909 59.4564 99.1706 59.5736C102.161 59.6086 104.868 59.6394 107.246 59.6662C107.54 59.6826 107.837 59.6374 108.139 59.732C108.431 59.8246 108.678 60.0261 108.83 60.2791C108.991 60.526 109.023 60.8407 109.007 61.0999C109.003 61.3652 109.001 61.6244 108.997 61.8795C108.984 62.8977 108.972 63.8274 108.962 64.6646C108.949 65.4997 108.939 66.2423 108.929 66.8882C108.923 67.209 108.919 67.5073 108.914 67.7788C108.919 68.0462 108.902 68.3116 108.795 68.5152C108.596 68.9307 108.248 69.0932 108.036 69.1529C107.814 69.2084 107.695 69.1858 107.695 69.1858Z" fill="#E1E1E1"/>
<path d="M57.6139 64.3991C57.6077 65.0779 57.0873 65.625 56.4496 65.6189C55.812 65.6127 55.2998 65.0573 55.306 64.3785C55.3121 63.6997 55.8326 63.1526 56.4702 63.1587C57.1079 63.1629 57.6201 63.7203 57.6139 64.3991Z" fill="#34508E"/>
<path d="M61.1889 64.4299C61.1827 65.1087 60.6623 65.6558 60.0246 65.6496C59.387 65.6435 58.8748 65.0881 58.881 64.4093C58.8871 63.7305 59.4076 63.1833 60.0452 63.1895C60.6829 63.1957 61.1951 63.7511 61.1889 64.4299Z" fill="#34508E"/>
<path d="M64.7641 64.4606C64.7579 65.1394 64.2375 65.6866 63.5998 65.6804C62.9622 65.6742 62.45 65.1188 62.4561 64.44C62.4623 63.7612 62.9827 63.2141 63.6204 63.2203C64.258 63.2264 64.7702 63.7818 64.7641 64.4606Z" fill="#34508E"/>
<path d="M68.3412 64.4938C68.335 65.1726 67.8146 65.7198 67.1769 65.7136C66.5393 65.7074 66.0271 65.152 66.0333 64.4732C66.0394 63.7944 66.5598 63.2473 67.1975 63.2535C67.8352 63.2576 68.3473 63.813 68.3412 64.4938Z" fill="#34508E"/>
<path d="M71.9161 64.5247C71.9099 65.2055 71.3895 65.7506 70.7518 65.7444C70.1142 65.7383 69.602 65.1829 69.6081 64.5041C69.6143 63.8232 70.1347 63.2781 70.7724 63.2822C71.41 63.2884 71.9222 63.8459 71.9161 64.5247Z" fill="#34508E"/>
<path d="M75.4909 64.5554C75.4848 65.2363 74.9644 65.7814 74.3267 65.7752C73.689 65.769 73.1769 65.2136 73.183 64.5348C73.1892 63.854 73.7096 63.3089 74.3473 63.313C74.9849 63.3212 75.4971 63.8766 75.4909 64.5554Z" fill="#34508E"/>
<path d="M79.0681 64.5865C79.0619 65.2673 78.5415 65.8124 77.9038 65.8083C77.2662 65.8022 76.754 65.2468 76.7601 64.568C76.7663 63.8871 77.2867 63.342 77.9244 63.3482C78.56 63.3523 79.0722 63.9077 79.0681 64.5865Z" fill="#34508E"/>
<path d="M82.6432 64.6173C82.637 65.2981 82.1166 65.8432 81.479 65.8391C80.8413 65.8329 80.3291 65.2775 80.3353 64.5987C80.3415 63.9199 80.8619 63.3728 81.4995 63.379C82.1372 63.3831 82.6494 63.9385 82.6432 64.6173Z" fill="#34508E"/>
<path d="M86.2181 64.6501C86.2119 65.3289 85.6915 65.876 85.0539 65.8699C84.4162 65.8637 83.904 65.3083 83.9102 64.6295C83.9164 63.9507 84.4368 63.4035 85.0744 63.4097C85.7121 63.4138 86.2243 63.9692 86.2181 64.6501Z" fill="#34508E"/>
<g opacity="0.2">
<path d="M57.6139 64.3991C57.6077 65.0779 57.0873 65.625 56.4496 65.6189C55.812 65.6127 55.2998 65.0573 55.306 64.3785C55.3121 63.6997 55.8326 63.1526 56.4702 63.1587C57.1079 63.1629 57.6201 63.7203 57.6139 64.3991Z" fill="#34508E"/>
<path d="M61.1889 64.4299C61.1827 65.1087 60.6623 65.6558 60.0246 65.6496C59.387 65.6435 58.8748 65.0881 58.881 64.4093C58.8871 63.7305 59.4076 63.1833 60.0452 63.1895C60.6829 63.1957 61.1951 63.7511 61.1889 64.4299Z" fill="#34508E"/>
<path d="M64.7641 64.4606C64.7579 65.1394 64.2375 65.6866 63.5998 65.6804C62.9622 65.6742 62.45 65.1188 62.4561 64.44C62.4623 63.7612 62.9827 63.2141 63.6204 63.2203C64.258 63.2264 64.7702 63.7818 64.7641 64.4606Z" fill="#34508E"/>
<path d="M68.3412 64.4938C68.335 65.1726 67.8146 65.7198 67.1769 65.7136C66.5393 65.7074 66.0271 65.152 66.0333 64.4732C66.0394 63.7944 66.5598 63.2473 67.1975 63.2535C67.8352 63.2576 68.3473 63.813 68.3412 64.4938Z" fill="#34508E"/>
<path d="M71.9161 64.5247C71.9099 65.2055 71.3895 65.7506 70.7518 65.7444C70.1142 65.7383 69.602 65.1829 69.6081 64.5041C69.6143 63.8232 70.1347 63.2781 70.7724 63.2822C71.41 63.2884 71.9222 63.8459 71.9161 64.5247Z" fill="#34508E"/>
<path d="M75.4909 64.5554C75.4848 65.2363 74.9644 65.7814 74.3267 65.7752C73.689 65.769 73.1769 65.2136 73.183 64.5348C73.1892 63.854 73.7096 63.3089 74.3473 63.313C74.9849 63.3212 75.4971 63.8766 75.4909 64.5554Z" fill="#34508E"/>
<path d="M79.0681 64.5865C79.0619 65.2673 78.5415 65.8124 77.9038 65.8083C77.2662 65.8022 76.754 65.2468 76.7601 64.568C76.7663 63.8871 77.2867 63.342 77.9244 63.3482C78.56 63.3523 79.0722 63.9077 79.0681 64.5865Z" fill="#34508E"/>
<path d="M82.6432 64.6173C82.637 65.2981 82.1166 65.8432 81.479 65.8391C80.8413 65.8329 80.3291 65.2775 80.3353 64.5987C80.3415 63.9199 80.8619 63.3728 81.4995 63.379C82.1372 63.3831 82.6494 63.9385 82.6432 64.6173Z" fill="#34508E"/>
<path d="M86.2181 64.6501C86.2119 65.3289 85.6915 65.876 85.0539 65.8699C84.4162 65.8637 83.904 65.3083 83.9102 64.6295C83.9164 63.9507 84.4368 63.4035 85.0744 63.4097C85.7121 63.4138 86.2243 63.9692 86.2181 64.6501Z" fill="#34508E"/>
</g>
<path d="M116.079 67.3099C115.067 59.3001 108.071 53.4151 100.008 53.7792L99.2057 53.8162C90.587 54.711 86.5328 62.5316 87.6661 71.1235L91.7657 105.755L105.866 109.778L110.721 104.469C110.505 102.038 110.101 97.0001 110.12 96.998C110.12 96.998 118.368 95.3298 118.097 87.0197C117.965 83.0066 117.021 74.7623 116.079 67.3099Z" fill="#FFC19D"/>
<path d="M110.122 96.9999C110.122 96.9999 104.899 97.545 99.1626 94.293C99.1626 94.293 102.046 100.421 110.301 99.2976L110.122 96.9999Z" fill="#FF9C6A"/>
<path d="M113.323 73.5609C113.374 74.1863 112.885 74.7437 112.232 74.8095C111.582 74.8733 111.013 74.4208 110.961 73.7954C110.91 73.1701 111.397 72.6106 112.049 72.5469C112.701 72.481 113.271 72.9356 113.323 73.5609Z" fill="#1A2E35"/>
<path d="M114.479 71.0596C114.339 71.2201 113.409 70.5968 112.134 70.6585C110.859 70.7017 109.951 71.4011 109.805 71.2509C109.733 71.1851 109.871 70.8992 110.266 70.5824C110.655 70.2698 111.325 69.9509 112.122 69.918C112.918 69.8872 113.598 70.1484 113.997 70.4302C114.403 70.712 114.549 70.9856 114.479 71.0596Z" fill="#1A2E35"/>
<path d="M100.886 74.5194C100.938 75.1448 100.448 75.7022 99.796 75.768C99.146 75.8338 98.5763 75.3793 98.5248 74.7539C98.4734 74.1286 98.963 73.5691 99.613 73.5054C100.267 73.4395 100.837 73.8941 100.886 74.5194Z" fill="#1A2E35"/>
<path d="M101.98 71.9213C101.841 72.0818 100.911 71.4585 99.6355 71.5202C98.3602 71.5634 97.4531 72.2628 97.307 72.1126C97.2371 72.0468 97.3729 71.7609 97.7678 71.4462C98.1566 71.1315 98.8271 70.8147 99.6232 70.7818C100.419 70.7509 101.1 71.0122 101.499 71.294C101.902 71.5737 102.048 71.8473 101.98 71.9213Z" fill="#1A2E35"/>
<path d="M107.004 81.5213C106.996 81.4493 107.781 81.2765 109.061 81.0544C109.386 81.0071 109.69 80.9268 109.735 80.7026C109.801 80.464 109.649 80.1184 109.474 79.7461C109.133 78.9707 108.775 78.1582 108.398 77.3086C106.899 73.8344 105.798 70.9732 105.94 70.9135C106.08 70.8539 107.409 73.6226 108.909 77.0947C109.271 77.9525 109.616 78.7691 109.945 79.5507C110.085 79.9148 110.315 80.3262 110.171 80.8219C110.095 81.0688 109.863 81.258 109.657 81.3218C109.452 81.3958 109.268 81.4061 109.106 81.4246C107.814 81.5522 107.012 81.5933 107.004 81.5213Z" fill="#1A2E35"/>
<path d="M102.213 67.9105C102.055 68.2437 100.8 67.9578 99.29 67.9928C97.7802 67.9989 96.5336 68.3198 96.367 67.9907C96.293 67.8344 96.5336 67.5279 97.0541 67.2399C97.5683 66.952 98.3684 66.7092 99.2735 66.6948C100.179 66.6825 100.985 66.9046 101.507 67.1782C102.034 67.4518 102.283 67.75 102.213 67.9105Z" fill="#1A2E35"/>
<path d="M114.368 67.3037C114.121 67.6102 113.064 67.3716 111.813 67.4313C110.562 67.4559 109.519 67.7645 109.256 67.4765C109.141 67.3366 109.289 67.0363 109.735 66.7339C110.174 66.4336 110.922 66.1642 111.782 66.1354C112.642 66.1066 113.401 66.3246 113.853 66.5941C114.314 66.8656 114.477 67.1556 114.368 67.3037Z" fill="#1A2E35"/>
<path d="M88.6247 77.2429C88.4808 77.1874 82.8406 75.8133 83.2787 81.4844C83.7168 87.1554 89.32 85.5448 89.3179 85.3823C89.3138 85.2178 88.6247 77.2429 88.6247 77.2429Z" fill="#FFC19D"/>
<path d="M87.4194 83.3663C87.3927 83.3498 87.3268 83.4424 87.1643 83.5329C87.008 83.6193 86.7303 83.6933 86.4279 83.6049C85.8129 83.4321 85.2349 82.5188 85.1279 81.4985C85.0745 80.9843 85.1444 80.4845 85.2946 80.0628C85.4365 79.6349 85.6813 79.3243 85.9795 79.2462C86.2737 79.1536 86.502 79.3182 86.5843 79.4724C86.6727 79.6247 86.646 79.7419 86.6768 79.7481C86.6933 79.7604 86.792 79.6432 86.7283 79.4128C86.6953 79.3017 86.6192 79.1742 86.4773 79.0754C86.3333 78.9747 86.1276 78.9335 85.9199 78.9726C85.4858 79.0364 85.1218 79.4704 84.9551 79.9311C84.7659 80.3981 84.6733 80.9596 84.7351 81.5376C84.8605 82.6772 85.527 83.7016 86.3662 83.8743C86.7735 83.9484 87.0964 83.8023 87.2589 83.6542C87.4194 83.5041 87.44 83.3766 87.4194 83.3663Z" fill="#FF9C6A"/>
<path d="M126.868 58.8638C126.752 58.5368 126.489 58.2797 126.176 58.1275C125.498 57.7922 124.753 57.8991 124.029 57.9423C122.227 58.0493 120.407 57.7222 118.741 57.029C119.28 56.704 119.775 56.3194 120.187 55.8442C121.034 54.861 121.456 53.4211 120.944 52.2281C120.847 52.0039 120.695 51.7735 120.458 51.72C120.082 51.6357 119.786 52.0203 119.551 52.3268C118.778 53.3347 118.027 53.7976 116.758 53.7667C115.97 53.7461 115.198 53.6289 114.555 53.2915C114.528 53.2669 114.503 53.2422 114.476 53.2175C114.158 52.9357 113.849 52.6662 113.545 52.407L113.543 52.405V52.407C111.249 50.4509 109.305 49.1241 107.357 48.505C104.504 47.5979 99.8392 47.495 97.0088 48.47C94.1784 49.445 91.7615 51.9833 91.5846 54.97C89.8629 53.7235 87.4316 53.9169 85.5206 54.8589L85.4692 54.8404C83.332 55.7887 82.2583 58.2036 81.779 60.4909C81.7523 60.6164 81.7317 60.7419 81.707 60.8673C81.0529 62.0994 80.1191 63.1855 78.9692 63.9754C78.7656 64.1153 78.5352 64.2839 78.527 64.5308C78.5187 64.7756 78.7388 64.9607 78.9487 65.0862C79.504 65.4235 80.1355 65.6251 80.7814 65.6909C80.621 66.2381 80.4235 66.7729 80.1705 67.2892C79.9545 67.7273 79.6974 68.2518 79.9463 68.6735C80.1396 68.9985 80.5798 69.1055 80.948 69.0232C81.3162 68.9409 81.633 68.7085 81.9354 68.4843C81.7338 69.089 81.5343 69.6938 81.3327 70.2985C82.1369 70.3767 82.9556 70.2512 83.7085 69.9591C84.3338 72.0181 84.9756 75.8708 85.6214 77.249C87.1292 77.1626 87.483 76.9713 88.2605 77.1646C89.2664 77.4156 89.0237 79.1825 90.264 78.5922C90.8955 78.2919 91.708 75.7515 91.8767 75.0706C92.9895 70.5638 93.115 65.8164 92.2469 61.2581C93.0841 60.2194 94.1229 59.3452 95.2871 58.6952L95.1945 58.7919C97.4531 57.8127 100.016 56.8213 102.299 57.7449C104.07 58.4607 105.206 60.1556 106.588 61.4741C109.209 63.9713 112.053 65.1931 115.67 65.0779C116.184 67.5566 116.587 71.6438 116.885 73.9722L118.529 69.1445L118.531 69.1631C118.671 68.8771 118.784 68.5912 118.891 68.3032L118.928 68.2169V68.2066C119.098 67.7458 119.259 67.2871 119.485 66.8284C119.493 66.8346 119.502 66.8407 119.51 66.8469C120.859 67.8692 122.597 66.02 121.495 64.7344C121.277 64.4794 121.022 64.2572 120.736 64.0782C121.355 64.5781 122.237 64.7735 122.978 64.4835C123.718 64.1934 124.249 63.3809 124.124 62.5952C124.037 62.0583 123.616 61.6058 123.112 61.4289C124.14 61.4309 125.169 61.1286 126.022 60.5547C126.59 60.1762 127.123 59.5838 126.868 58.8638Z" fill="#3C3C3C"/>
<path d="M94.273 55.7227C94.2915 55.7432 93.9418 55.9674 93.4975 56.5475C93.0573 57.1234 92.5904 58.1026 92.432 59.3984C92.3497 60.0423 92.3209 60.7602 92.3785 61.5233C92.432 62.2885 92.5554 63.101 92.6788 63.9608C92.8002 64.8185 92.9298 65.7257 92.9462 66.678C92.9544 67.1532 92.9339 67.6386 92.866 68.1282C92.7981 68.6095 92.7117 69.132 92.3847 69.566C92.1255 69.9198 91.6606 70.1008 91.243 70.0473C90.8234 70.0062 90.4367 69.8128 90.1446 69.531C89.5646 68.9489 89.3712 68.1673 89.1861 67.4803L89.3609 67.4885C89.1244 68.1364 88.8775 68.7761 88.4826 69.3027C88.0938 69.8314 87.5302 70.2057 86.9337 70.3045C86.6375 70.3538 86.3331 70.3291 86.0677 70.2181C85.7962 70.1111 85.5905 69.9075 85.4424 69.6894C85.3005 69.4652 85.2161 69.2143 85.21 68.9674C85.2059 68.7206 85.284 68.4799 85.428 68.301L85.5226 68.373C84.9364 69.1505 84.2905 69.5928 83.84 69.8458C83.6117 69.9733 83.4286 70.0515 83.3032 70.1029C83.1777 70.1502 83.1119 70.1728 83.1098 70.1666C83.1078 70.1605 83.1695 70.1296 83.2908 70.072C83.4101 70.0124 83.5891 69.9239 83.8092 69.7902C84.2453 69.5249 84.8685 69.0723 85.428 68.303L85.5226 68.375C85.2655 68.6918 85.2881 69.2122 85.5597 69.6133C85.6954 69.8108 85.8847 69.9897 86.1233 70.0803C86.3598 70.1749 86.6375 70.1954 86.909 70.1481C87.4562 70.0515 87.9828 69.7018 88.3448 69.1999C88.7171 68.698 88.9557 68.0727 89.1881 67.4247L89.2869 67.1491L89.363 67.4329C89.5481 68.1179 89.7476 68.8666 90.2763 69.3912C90.5375 69.6421 90.8913 69.817 91.2595 69.8519C91.6298 69.8951 92.0041 69.747 92.2304 69.4426C92.5163 69.0682 92.6068 68.5725 92.6726 68.0994C92.7385 67.6222 92.759 67.147 92.7529 66.678C92.7405 65.7421 92.615 64.8412 92.4978 63.9834C92.3785 63.1257 92.2612 62.307 92.2139 61.5315C92.1625 60.756 92.1995 60.0299 92.2921 59.3758C92.4711 58.0614 92.9688 57.0679 93.4358 56.4961C93.9068 55.9263 94.273 55.7227 94.273 55.7227Z" fill="#375A64"/>
<path d="M120.557 61.8671C120.559 61.8692 120.538 61.8898 120.495 61.9288C120.442 61.9741 120.378 62.0296 120.3 62.0955C120.213 62.1695 120.104 62.258 119.964 62.3485C119.827 62.441 119.672 62.5542 119.479 62.6529C118.736 63.0766 117.527 63.5333 115.974 63.56C114.437 63.5888 112.557 63.1856 110.825 62.0872C109.077 61.0197 107.489 59.372 106.148 57.4508C105.469 56.4923 104.899 55.4988 104.284 54.5875C103.673 53.6763 103.013 52.8412 102.24 52.1994C101.474 51.5535 100.608 51.101 99.7384 50.9282C99.3043 50.8336 98.8744 50.8377 98.4672 50.8788C98.0599 50.9303 97.6773 51.0434 97.3297 51.1874C96.6323 51.4815 96.0852 51.9197 95.6779 52.3599C95.2686 52.8021 95.0073 53.2588 94.8325 53.6455C94.5137 54.4374 94.5281 54.929 94.4972 54.9228C94.4931 54.9228 94.4931 54.894 94.4972 54.8344C94.5034 54.7644 94.5096 54.6801 94.5178 54.5773C94.5425 54.351 94.6124 54.0219 94.7626 53.6167C94.9292 53.2176 95.1863 52.7486 95.5977 52.2879C96.007 51.8312 96.5604 51.3725 97.2762 51.0619C97.6341 50.9097 98.027 50.7883 98.4486 50.7307C98.8703 50.6834 99.3208 50.6773 99.7713 50.7719C100.674 50.9447 101.571 51.4075 102.355 52.0637C103.151 52.7157 103.826 53.5652 104.443 54.4826C105.064 55.4 105.634 56.3894 106.306 57.3418C107.637 59.2486 109.202 60.8777 110.918 61.9371C112.619 63.0273 114.456 63.4345 115.97 63.4243C117.498 63.416 118.693 62.9882 119.44 62.5891C120.195 62.1798 120.54 61.8445 120.557 61.8671Z" fill="#375A64"/>
<path d="M121.038 58.1624C121.047 58.1726 120.946 58.2549 120.757 58.3927C120.569 58.5347 120.279 58.7116 119.909 58.907C119.539 59.1044 119.076 59.2978 118.547 59.4706C118.017 59.6331 117.418 59.7688 116.78 59.8408C116.141 59.9067 115.528 59.9005 114.974 59.8532C114.421 59.7976 113.93 59.7071 113.524 59.5919C113.121 59.4809 112.8 59.3677 112.586 59.269C112.372 59.1744 112.257 59.1168 112.261 59.1044C112.276 59.0695 112.751 59.2711 113.557 59.4562C113.958 59.5529 114.446 59.6269 114.989 59.6722C115.532 59.7071 116.133 59.7071 116.76 59.6434C117.385 59.5734 117.971 59.4438 118.496 59.2937C119.016 59.1332 119.477 58.9563 119.849 58.7774C120.596 58.4298 121.018 58.1315 121.038 58.1624Z" fill="#375A64"/>
<path d="M103.104 83.6108C102.861 84.2176 102.869 84.8121 102.791 85.4621C102.713 86.1121 102.991 86.5708 103.392 87.085C103.807 87.6199 104.498 87.8955 105.175 87.9078C105.181 87.9078 105.189 87.9078 105.196 87.9078C106.461 87.9243 107.532 86.9699 107.732 85.7192L107.95 84.3534C106.656 84.0058 103.198 83.6993 103.104 83.6108Z" fill="#FF9C6A"/>
<path d="M106.489 87.5152C106.481 87.4885 106.327 87.5234 106.049 87.5604C105.774 87.5975 105.366 87.6468 104.887 87.5687C104.412 87.4926 103.865 87.2416 103.47 86.7418C103.077 86.2563 102.867 85.5405 102.912 84.8082C102.935 84.4051 103.04 84.0184 103.209 83.6913L103.038 83.7756C104.276 83.9608 105.358 84.1109 106.132 84.2035C106.905 84.2961 107.372 84.3331 107.378 84.2919C107.384 84.2529 106.93 84.1438 106.164 83.9937C105.399 83.8435 104.323 83.6543 103.089 83.4506L102.974 83.4321L102.919 83.537C102.721 83.9093 102.602 84.3413 102.577 84.7877C102.528 85.5981 102.764 86.39 103.231 86.9392C103.688 87.4905 104.332 87.7559 104.854 87.8032C105.383 87.8567 105.802 87.7641 106.078 87.688C106.354 87.6098 106.496 87.5337 106.489 87.5152Z" fill="#1A2E35"/>
<path d="M71.2742 109.142C70.7908 109.142 63.9102 111.892 62.1001 118.656C60.29 125.419 55.3409 150.176 55.3409 150.176L50.0957 157.44C50.0957 157.44 51.7947 170.713 61.4501 168.191C61.4501 168.191 67.8946 169.316 69.9454 162.784C71.9982 156.251 75.9805 136.765 75.9805 136.765L71.2742 109.142Z" fill="#53699C"/>
<path d="M130.659 168.596C131.062 174.545 129.283 133.116 129.213 131.608L133.195 110.288L114.485 102.722L111.589 98.2525L103.169 104.656L91.3625 97.8062L87.7176 103.323L71.2722 109.14L75.9806 156.822V173.463L75.5095 186.727L132.45 186.64C133.713 182.471 131.453 179.939 131.276 179.449L130.659 168.596Z" fill="#53699C"/>
<path d="M133.195 110.288C133.195 110.288 136.959 113.593 137.591 116.111C138.222 118.629 151.747 147.949 151.747 147.949L158.471 149.763L160.263 153.486C162.387 157.898 161.236 163.275 157.333 166.235C157.089 166.42 156.848 166.587 156.614 166.724C152.981 168.882 144.054 168.243 140.248 163.754C136.645 159.505 128.499 144.768 128.499 144.768V126.064L133.195 110.288Z" fill="#53699C"/>
<path d="M155.239 150.907L164.907 145.201L169.564 150.907L168.601 153.669L156.14 162.919C156.14 162.919 153.804 161.204 153.25 157.909C152.666 154.443 155.239 150.907 155.239 150.907Z" fill="#FFC19D"/>
<path d="M152.166 147.959C152.166 148.05 151.348 147.98 150.134 148.369C148.927 148.739 147.369 149.667 146.119 151.152C144.866 152.643 144.101 154.27 143.564 155.442C143.033 156.621 142.717 157.366 142.649 157.339C142.589 157.316 142.787 156.535 143.239 155.307C143.7 154.091 144.43 152.39 145.74 150.829C147.055 149.265 148.741 148.33 150.041 148.029C151.346 147.71 152.181 147.914 152.166 147.959Z" fill="#1A2E35"/>
<path d="M164.742 148.369C164.654 148.19 163.938 144.082 167.065 141.404C170.189 138.726 173.001 137.788 174.698 137.029C176.395 136.27 179.921 133.324 180.546 134.038C181.171 134.752 181.439 135.823 180.546 137.119C179.653 138.413 174.54 140.359 175.254 142C175.546 142.673 177.154 142.79 177.154 142.79C177.154 142.79 183.315 143.191 185.905 142.969C188.494 142.745 190.814 143.237 190.681 144.129C190.547 145.022 190.055 145.514 187.912 145.693C185.769 145.872 182.286 145.738 182.109 146.227C181.93 146.719 182.644 147.032 183.895 146.941C185.145 146.853 191.037 146.853 191.44 147.521C191.841 148.192 191.528 149.218 190.726 149.44L189.342 149.932C189.342 149.932 190.146 151.049 189.475 151.672C188.805 152.298 187.289 152.073 187.289 152.073L179.476 151.851C179.476 151.851 179.03 152.322 179.252 152.645C179.477 152.968 185.592 152.522 185.637 153.19C185.682 153.861 186.217 154.171 184.386 154.62C182.556 155.066 177.958 155.066 176.307 154.62C174.655 154.173 167.735 153.861 167.735 153.861L164.742 148.369Z" fill="#FFC19D"/>
<path d="M58.5828 151.927L49.5466 144.423L44.3569 150.257L44.9925 153.112L56.2914 163.753C56.2914 163.753 58.735 162.57 59.8396 159.419C60.9627 156.216 58.5828 151.927 58.5828 151.927Z" fill="#FFC19D"/>
<path d="M49.4416 148.299C49.5506 148.132 50.7395 144.135 47.9482 141.112C45.1569 138.088 42.4726 136.829 40.8764 135.877C39.2802 134.924 36.1207 131.588 35.4172 132.223C34.7137 132.859 34.3229 133.894 35.0572 135.282C35.7936 136.673 39.3069 138.3 39.1814 140.083C39.0909 141.375 37.7662 141.309 37.7662 141.309C37.7662 141.309 31.6015 140.99 29.055 140.466C26.5085 139.943 24.1471 140.159 24.1759 141.062C24.2047 141.965 24.6346 142.51 26.743 142.936C28.8493 143.364 32.3235 143.635 32.4449 144.146C32.5642 144.654 31.8196 144.882 30.5874 144.647C29.3574 144.413 23.5033 143.726 23.0261 144.345C22.5488 144.964 22.7401 146.019 23.5115 146.334L24.828 146.984C24.828 146.984 23.9003 147.998 24.4927 148.698C25.0851 149.397 26.6175 149.352 26.6175 149.352L34.4031 150.041C34.4031 150.041 34.7919 150.561 34.5327 150.855C34.2735 151.15 28.2507 149.994 28.1294 150.654C28.006 151.314 27.4382 151.561 29.2052 152.219C30.97 152.875 35.5386 153.412 37.2294 153.161C38.9223 152.91 45.8316 153.406 45.8316 153.406L49.4416 148.299Z" fill="#FFC19D"/>
<path d="M114.02 104.084C114.067 104.138 113.425 104.763 112.397 105.773C111.368 106.785 109.957 108.188 108.464 109.801C108.149 110.144 107.843 110.479 107.544 110.804L107.347 111.02L107.168 110.792C106.012 109.307 105.01 107.988 104.311 107.032C103.612 106.073 103.215 105.479 103.262 105.44C103.311 105.401 103.797 105.927 104.564 106.832C105.331 107.735 106.38 109.017 107.553 110.49L107.176 110.477C107.474 110.148 107.781 109.809 108.096 109.461C109.599 107.838 111.06 106.462 112.154 105.514C113.255 104.566 113.977 104.035 114.02 104.084Z" fill="#1A2E35"/>
<path d="M72.3438 121.784C72.3788 121.778 72.4713 122.138 72.6112 122.794C72.7531 123.45 72.9259 124.405 73.1172 125.59C73.4998 127.957 73.903 131.246 74.2403 134.887C74.5756 138.528 74.8224 141.827 75.0096 144.213C75.0898 145.322 75.1577 146.264 75.2133 147.042C75.2544 147.71 75.2626 148.083 75.2277 148.087C75.1927 148.091 75.1207 147.727 75.0199 147.062C74.9171 146.4 74.7936 145.437 74.6579 144.246C74.3822 141.866 74.0799 138.569 73.7446 134.932C73.4093 131.296 73.0617 128.011 72.7696 125.637C72.6338 124.534 72.5166 123.596 72.422 122.825C72.3376 122.161 72.3088 121.79 72.3438 121.784Z" fill="#1A2E35"/>
<path d="M129.513 120.122C129.548 120.12 129.608 120.573 129.69 121.391C129.772 122.212 129.861 123.401 129.937 124.872C130.099 127.815 130.186 131.884 130.196 136.376C130.196 140.817 130.196 144.832 130.196 147.877C130.198 149.271 130.198 150.44 130.2 151.361C130.196 152.184 130.179 152.641 130.144 152.641C130.109 152.643 130.062 152.188 130.007 151.365C129.947 150.542 129.893 149.352 129.844 147.881C129.745 144.937 129.708 140.869 129.698 136.376C129.688 131.886 129.659 127.823 129.587 124.884C129.552 123.489 129.521 122.323 129.499 121.402C129.476 120.581 129.48 120.124 129.513 120.122Z" fill="#1A2E35"/>
<path d="M64.9221 162.285C64.846 162.294 64.7164 161.313 64.4182 159.753C64.1137 158.204 63.6221 156.045 62.4661 153.945C61.3101 151.848 59.6234 150.374 58.2411 149.658C56.8547 148.919 55.8489 148.829 55.8674 148.734C55.8715 148.705 56.1225 148.697 56.5688 148.765C57.0172 148.829 57.6569 149.002 58.3975 149.341C59.8805 150.005 61.6948 151.513 62.9001 153.7C64.0993 155.884 64.5437 158.114 64.7638 159.694C64.9777 161.288 64.9838 162.279 64.9221 162.285Z" fill="#1A2E35"/>
<path d="M67.2735 152.413C67.1706 152.53 65.7143 151.032 63.3509 150.245C60.9998 149.42 58.9305 149.712 58.9222 149.558C58.8687 149.445 61.0203 148.906 63.5134 149.774C66.0126 150.613 67.3846 152.357 67.2735 152.413Z" fill="#1A2E35"/>
<path d="M104.352 186.369C104.336 186.369 104.317 186.087 104.299 185.552C104.284 184.972 104.266 184.193 104.243 183.21C104.202 181.128 104.144 178.197 104.072 174.597C103.902 167.282 103.665 157.255 103.406 146.18C103.153 135.079 103.001 125.026 103.013 117.749C103.011 114.11 103.05 111.166 103.097 109.132C103.126 108.151 103.149 107.369 103.167 106.789C103.188 106.254 103.208 105.973 103.225 105.973C103.241 105.973 103.256 106.254 103.268 106.789C103.274 107.369 103.282 108.149 103.293 109.132C103.311 111.214 103.336 114.145 103.367 117.747C103.445 125.02 103.651 135.068 103.906 146.17C104.159 157.267 104.369 167.315 104.426 174.593C104.461 178.232 104.459 181.175 104.438 183.212C104.422 184.193 104.41 184.974 104.401 185.554C104.385 186.087 104.369 186.369 104.352 186.369Z" fill="#1A2E35"/>
<path d="M58.1424 151.614C58.1815 151.563 58.8562 152.108 59.463 153.315C59.7653 153.914 60.0615 154.665 60.2323 155.545C60.3989 156.434 60.403 157.421 60.2714 158.439C60.1315 159.455 59.8723 160.42 59.4239 161.216C58.9796 162.008 58.3975 162.602 57.8421 162.995C56.7087 163.791 55.8016 163.775 55.8119 163.728C55.7851 163.641 56.6305 163.526 57.6282 162.716C58.1198 162.314 58.632 161.739 59.0207 160.998C59.4095 160.262 59.644 159.344 59.7777 158.373C59.9052 157.4 59.9114 156.454 59.7818 155.625C59.644 154.79 59.3951 154.056 59.1441 153.463C58.6422 152.268 58.0889 151.664 58.1424 151.614Z" fill="#1A2E35"/>
<path d="M157.95 163.956C157.938 163.985 157.72 163.933 157.346 163.775C156.971 163.619 156.453 163.335 155.875 162.89C154.725 162.02 153.365 160.346 152.929 158.116C152.503 155.882 153.143 153.821 153.886 152.587C154.256 151.958 154.632 151.501 154.92 151.219C155.208 150.933 155.391 150.806 155.414 150.826C155.48 150.888 154.828 151.505 154.194 152.756C153.559 153.982 153.02 155.934 153.419 158.022C153.826 160.107 155.054 161.718 156.099 162.619C157.152 163.545 157.989 163.876 157.95 163.956Z" fill="#1A2E35"/>
<path d="M121.026 142.06C121.042 142.091 120.596 142.35 119.775 142.792C118.957 143.236 117.757 143.853 116.268 144.594C113.288 146.077 109.12 148.031 104.441 150.014C99.7589 151.995 95.4537 153.626 92.3147 154.735C90.7453 155.29 89.4679 155.72 88.5793 156C87.6907 156.28 87.195 156.419 87.1847 156.389C87.1723 156.356 87.6475 156.154 88.5155 155.817C89.47 155.451 90.7062 154.975 92.1934 154.406C95.2994 153.215 99.5738 151.534 104.247 149.557C108.919 147.579 113.1 145.68 116.116 144.279C117.562 143.609 118.763 143.051 119.689 142.621C120.534 142.228 121.009 142.029 121.026 142.06Z" fill="#1A2E35"/>
<path d="M176.5 139.855C176.56 139.912 176.138 140.317 175.601 141.025C175.34 141.385 175.089 141.833 174.984 142.397C174.867 142.958 174.875 143.619 174.778 144.339C174.587 145.824 173.676 146.937 172.915 147.482C172.135 148.043 171.532 148.13 171.52 148.078C171.489 148 172.028 147.796 172.693 147.208C173.347 146.628 174.114 145.602 174.285 144.269C174.375 143.602 174.381 142.919 174.536 142.296C174.68 141.665 175.011 141.152 175.326 140.805C175.971 140.108 176.461 139.815 176.5 139.855Z" fill="#FF9C6A"/>
<path d="M35.5983 147.537C35.6004 147.671 33.1629 147.801 30.1618 147.655C27.1586 147.515 24.7458 147.157 24.7602 147.023C24.7746 146.883 27.1977 147.017 30.1844 147.157C33.1711 147.301 35.5963 147.395 35.5983 147.537Z" fill="#FF9C6A"/>
<path d="M41.1293 147.126C41.117 147.178 40.5493 147.083 39.8623 146.501C39.1896 145.942 38.4368 144.8 38.4862 143.383C38.517 142.69 38.7001 142.081 38.8235 141.542C38.9551 141.003 39.023 140.526 39.0086 140.12C38.9922 139.302 38.6425 138.882 38.7042 138.835C38.733 138.779 39.239 139.17 39.3583 140.09C39.4241 140.534 39.385 141.077 39.2719 141.636C39.167 142.198 39.0086 142.792 38.9819 143.401C38.9366 144.627 39.5434 145.67 40.1029 146.246C40.6706 146.84 41.1643 147.05 41.1293 147.126Z" fill="#FF9C6A"/>
<path d="M177.891 148.854C177.903 148.716 180.497 148.821 183.685 149.086C186.873 149.351 189.449 149.679 189.438 149.816C189.426 149.954 186.832 149.849 183.644 149.584C180.456 149.317 177.88 148.989 177.891 148.854Z" fill="#FF9C6A"/>
<path d="M102.67 104.966C102.731 104.995 102.305 106.075 101.567 107.797C101.374 108.239 101.172 108.708 100.956 109.202C100.711 109.712 100.551 110.23 100.189 110.829C100.014 111.117 99.5965 111.417 99.1583 111.329C98.7428 111.252 98.4631 111.008 98.1895 110.833C97.632 110.45 97.0582 110.057 96.4699 109.652C94.1167 108.029 92.0021 106.538 90.4841 105.435C88.9681 104.335 88.0487 103.625 88.0877 103.57C88.1268 103.512 89.1162 104.119 90.6836 105.145C92.251 106.172 94.3985 107.618 96.7517 109.241C97.3379 109.648 97.9097 110.043 98.4651 110.43C98.7449 110.625 98.9999 110.82 99.2344 110.858C99.4586 110.901 99.654 110.783 99.8124 110.561C100.366 109.553 100.829 108.465 101.244 107.649C102.069 105.964 102.608 104.938 102.67 104.966Z" fill="#1A2E35"/>
<path d="M0.0496116 186.385L24.5377 186.278L49.0259 186.216L98.0001 186.165L146.974 186.214L171.462 186.276L195.951 186.383C195.979 186.383 196.002 186.406 196 186.432C196 186.459 195.977 186.482 195.951 186.482L171.462 186.589L146.974 186.65L98.0001 186.704L49.0259 186.653L24.5377 186.591L0.0496116 186.484C0.0228711 186.484 0.000244141 186.461 0.000244141 186.435C0.000244141 186.408 0.0228711 186.385 0.0496116 186.385Z" fill="#3C3C3C"/>
<path d="M2.51981 84.6685L35.0692 108.441L37.7206 103.146L41.2894 105.028L41.6083 95.63L45.2223 89.4776L2.51981 84.6685Z" fill="#C0C8DC"/>
<path d="M37.7102 103.164L41.2708 105.067C41.2914 105.077 41.3161 105.071 41.3284 105.051C41.3305 105.045 41.3325 105.038 41.3325 105.032L41.5156 100.334L41.6884 95.6339L41.6781 95.673L45.3086 89.5309C45.3354 89.4836 45.321 89.4239 45.2737 89.3951C45.2613 89.3869 45.2469 89.3828 45.2346 89.3828L34.561 88.1692L23.8833 86.9762L13.2056 85.7996C9.64708 85.4067 6.08443 85.0344 2.52383 84.6497C2.51354 84.6477 2.50326 84.6559 2.5012 84.6682C2.49914 84.6785 2.50737 84.6888 2.51971 84.6909C6.0762 85.1084 9.63063 85.5383 13.1892 85.9456L23.8627 87.1736L34.5363 88.3852L45.214 89.5762L45.14 89.4281L41.5403 95.5866C41.5341 95.5989 41.53 95.6113 41.53 95.6257L41.386 100.326L41.2523 105.026L41.314 104.991L37.7328 103.129C37.7226 103.125 37.7102 103.127 37.7061 103.138C37.6979 103.146 37.702 103.158 37.7102 103.164Z" fill="#53699C"/>
<path opacity="0.3" d="M39.7693 98.7275L39.3826 104.018L37.6486 103.109L39.7693 98.7275Z" fill="black"/>
<path opacity="0.3" d="M41.2894 105.028L39.7693 98.7278L2.51981 84.6685L41.6083 95.63L41.2894 105.028Z" fill="black"/>
<path d="M35.0816 108.424L31.0396 105.417L26.9854 102.424L18.8604 96.4631L10.7107 90.537L6.62761 87.5873L2.5322 84.652C2.52397 84.6459 2.50958 84.6479 2.5034 84.6561C2.49723 84.6644 2.49929 84.6788 2.50752 84.6849L6.54945 87.6922L10.6037 90.6851L18.7287 96.6441L26.8784 102.57L30.9615 105.522L35.0569 108.457C35.0651 108.463 35.0775 108.461 35.0836 108.453C35.0919 108.443 35.0898 108.433 35.0816 108.424Z" fill="#53699C"/>
<path d="M39.751 98.7196C39.5371 99.1146 39.3334 99.5157 39.1236 99.9147L38.5127 101.118C38.1054 101.92 37.7125 102.729 37.3176 103.537C36.9268 104.347 36.538 105.158 36.1616 105.975L35.5959 107.2C35.4129 107.612 35.2257 108.021 35.0488 108.435C35.0447 108.445 35.0488 108.457 35.0591 108.461C35.0693 108.466 35.0796 108.461 35.0858 108.453C35.2997 108.058 35.5034 107.657 35.7132 107.258L36.3241 106.055C36.7314 105.253 37.1242 104.444 37.5171 103.636C37.9059 102.825 38.2967 102.015 38.6731 101.198L39.2388 99.9723C39.4219 99.5609 39.6091 99.1516 39.786 98.7381C39.7901 98.7279 39.786 98.7155 39.7757 98.7114C39.7674 98.7052 39.7572 98.7093 39.751 98.7196Z" fill="#53699C"/>
<path d="M135.186 102.155L136.607 97.7225C135.163 95.3776 134.328 92.6171 134.328 89.6613C134.328 81.1599 141.219 74.269 149.72 74.269C158.222 74.269 165.112 81.1599 165.112 89.6613C165.112 98.1627 158.222 105.054 149.72 105.054C146.17 105.054 142.903 103.848 140.299 101.83L140.306 101.836L135.186 102.155Z" fill="white"/>
<path d="M135.186 102.155C135.186 102.155 135.291 102.153 135.509 102.143C135.733 102.13 136.058 102.114 136.482 102.091C137.356 102.044 138.639 101.972 140.31 101.882C140.334 101.88 140.351 101.859 140.351 101.836C140.351 101.828 140.347 101.818 140.343 101.812L140.336 101.805L140.275 101.867C141.846 103.091 144.177 104.414 147.223 104.92C147.98 105.047 148.778 105.119 149.605 105.125C150.43 105.09 151.29 105.088 152.158 104.922C153.898 104.65 155.708 104.058 157.415 103.079C159.123 102.104 160.725 100.742 162.025 99.0347C163.325 97.3336 164.321 95.2849 164.827 93.0448C165.345 90.8089 165.339 88.3797 164.765 86.0285C164.689 85.7365 164.615 85.4423 164.539 85.1461C164.452 84.854 164.335 84.5722 164.234 84.2842C164.121 84.0004 164.043 83.7001 163.897 83.4285C163.763 83.1509 163.629 82.8732 163.496 82.5955C163.372 82.3116 163.206 82.0504 163.043 81.785L162.558 80.9869L161.996 80.2361L161.714 79.8597C161.618 79.7363 161.505 79.6252 161.402 79.5059C159.711 77.5806 157.596 76.0749 155.284 75.2172C152.983 74.3368 150.537 74.0323 148.215 74.2504C145.888 74.4725 143.706 75.2418 141.838 76.3526C139.968 77.4654 138.415 78.9259 137.243 80.5323C136.066 82.1388 135.27 83.8893 134.807 85.6048C134.554 86.4605 134.447 87.3183 134.332 88.141C134.297 88.9721 134.227 89.7743 134.287 90.5436C134.47 93.6372 135.533 96.085 136.57 97.745L136.566 97.71C136.113 99.1561 135.766 100.269 135.529 101.028C135.416 101.396 135.328 101.678 135.268 101.873C135.21 102.063 135.186 102.155 135.186 102.155C135.186 102.155 135.223 102.054 135.287 101.861C135.352 101.664 135.447 101.38 135.568 101.009C135.815 100.261 136.175 99.1602 136.646 97.7347C136.65 97.7224 136.648 97.71 136.642 97.6997C135.628 96.0398 134.585 93.6023 134.418 90.5354C134.361 89.7722 134.435 88.9762 134.472 88.1534C134.589 87.3368 134.698 86.4893 134.951 85.6418C135.416 83.9448 136.208 82.2149 137.376 80.629C138.541 79.0431 140.077 77.6032 141.928 76.5069C143.776 75.4126 145.933 74.6556 148.231 74.4396C150.524 74.2278 152.939 74.5301 155.21 75.4002C157.493 76.2456 159.577 77.7349 161.247 79.6355C161.35 79.7528 161.461 79.8618 161.556 79.9831L161.834 80.3554L162.389 81.098L162.868 81.8858C163.029 82.1471 163.193 82.4062 163.315 82.686C163.446 82.9616 163.58 83.2352 163.712 83.5088C163.856 83.7762 163.932 84.0744 164.045 84.3542C164.146 84.638 164.261 84.9178 164.347 85.2058C164.421 85.4958 164.497 85.7858 164.571 86.0759C165.139 88.3961 165.147 90.7945 164.637 93.0037C164.14 95.217 163.16 97.241 161.877 98.9236C160.595 100.612 159.014 101.962 157.329 102.931C155.642 103.904 153.855 104.494 152.131 104.77C151.271 104.938 150.42 104.942 149.603 104.981C148.784 104.979 147.992 104.911 147.242 104.788C144.218 104.301 141.898 103.003 140.324 101.797C140.306 101.783 140.279 101.785 140.262 101.805C140.25 101.822 140.25 101.842 140.262 101.859L140.268 101.865L140.299 101.795C138.643 101.91 137.372 101.997 136.506 102.056C136.076 102.087 135.749 102.11 135.523 102.126C135.303 102.145 135.186 102.155 135.186 102.155Z" fill="#53699C"/>
<path d="M157.452 89.4557C157.452 93.8699 153.875 97.447 149.461 97.447C145.047 97.447 141.47 93.8699 141.47 89.4557C141.47 85.0414 145.047 81.4644 149.461 81.4644C151.368 81.4644 153.116 82.1329 154.49 83.2457L150.296 89.3261L147.725 86.9235C147.149 86.3846 146.246 86.4155 145.707 86.9914C145.168 87.5674 145.199 88.4704 145.775 89.0093L149.556 92.5411C149.821 92.79 150.171 92.9257 150.531 92.9257C150.582 92.9257 150.634 92.9237 150.685 92.9175C151.098 92.8723 151.471 92.6501 151.705 92.3087L156.403 85.496C157.072 86.6664 157.452 88.0158 157.452 89.4557Z" fill="#E6F5EB"/>
<path d="M158.263 80.2899C157.615 79.8415 156.724 80.006 156.278 80.654L154.49 83.2457C155.26 83.869 155.912 84.6321 156.405 85.4981L158.629 82.2748C159.075 81.6269 158.913 80.7383 158.263 80.2899Z" fill="#4FBA77"/>
<path d="M156.405 85.498L151.707 92.3106C151.471 92.6521 151.098 92.8742 150.685 92.9195C150.633 92.9236 150.582 92.9257 150.531 92.9257C150.173 92.9257 149.821 92.7899 149.558 92.541L145.775 89.0092C145.201 88.4723 145.168 87.5693 145.707 86.9913C146.246 86.4174 147.147 86.3845 147.725 86.9235L150.296 89.3239L154.49 83.2456C155.257 83.8689 155.909 84.632 156.405 85.498Z" fill="#4FBA77"/>
</g>
<defs>
<clipPath id="clip0_898_22530">
<rect width="196" height="196" fill="white" transform="translate(0 0.5)"/>
</clipPath>
</defs>
</svg>
